<svg width="17" height="16" viewBox="0 0 17 16" fill="none" xmlns="http://www.w3.org/2000/svg">
<path d="M8.00095 5.41524e-05C6.94968 -0.00382659 5.90809 0.20091 4.93651 0.602405C3.96492 1.0039 3.08265 1.59418 2.34079 2.33904C-0.780263 5.46009 -0.780263 10.5383 2.34079 13.6602C3.08263 14.4051 3.96489 14.9955 4.93646 15.3971C5.90804 15.7987 6.94964 16.0036 8.00095 16C9.05226 16.0036 10.0939 15.7987 11.0654 15.3971C12.037 14.9955 12.9193 14.4051 13.6611 13.6602C16.7822 10.5391 16.7822 5.4609 13.6611 2.33904C12.9193 1.59418 12.037 1.0039 11.0654 0.602405C10.0938 0.20091 9.05222 -0.00382659 8.00095 5.41524e-05ZM12.5292 12.5275C11.9356 13.1232 11.2297 13.5952 10.4524 13.9163C9.67517 14.2375 8.84193 14.4012 8.00095 14.3982C6.28713 14.3982 4.67898 13.7338 3.47266 12.5275C0.975979 10.0308 0.975979 5.9676 3.47266 3.47091C4.06631 2.87529 4.77221 2.40333 5.5495 2.08236C6.32678 1.76139 7.16001 1.59778 8.00095 1.601C9.71477 1.601 11.3229 2.2646 12.5292 3.47091C15.0259 5.9676 15.0259 10.0308 12.5292 12.5275Z" fill="#F59020"/>
<path d="M6.12864 4.99501L4.99676 6.12688L7.56949 8.6996L5.86848 10.4006H10.4024V5.86752L8.70136 7.56773L6.12864 4.99501Z" fill="#F59020"/>
</svg>
