<!--?xml version="1.0" standalone="no"?-->              
<svg id="sw-js-blob-svg" viewBox="0 0 100 100" xmlns="http://www.w3.org/2000/svg">                    
   <defs>                         
      <linearGradient id="sw-gradient" x1="0" x2="1" y1="1" y2="0">                            
         <stop id="stop1" stop-color="rgba(248, 117, 55, 1)" offset="0%"><stop>                            
         <stop id="stop2" stop-color="rgba(251, 168, 31, 1)" offset="100%"><stop>
      </linearGradient>                    
   </defs>
   <path fill="url(#sw-gradient)" d="M24.7,-30.1C31.8,-23.6,37,-15.5,39.8,-6.1C42.6,3.3,42.9,14.1,37.9,21.1C33,28.2,22.8,31.4,13,34.4C3.2,37.3,-6.2,40,-15.4,38.4C-24.7,36.7,-33.7,30.7,-36.3,22.7C-38.8,14.7,-34.8,4.6,-30.9,-3.3C-26.9,-11.2,-23,-17,-17.9,-23.8C-12.7,-30.7,-6.4,-38.6,1.2,-40.1C8.9,-41.6,17.7,-36.6,24.7,-30.1Z" width="100%" height="100%" transform="translate(50 50)" stroke-width="0" style="transition: all 0.3s ease 0s;"><path>
</svg>