<svg width="16" height="14" viewBox="0 0 16 14" fill="none" xmlns="http://www.w3.org/2000/svg">
<path d="M13.4 3.3H10.707C10.7524 3.06944 10.7751 2.83499 10.775 2.6C10.775 1.10269 9.67897 0 7.89997 0C6.48391 0 6.11866 1.51678 5.53412 2.462C5.29241 2.84991 5.00306 3.19066 4.72628 3.50116L4.72219 3.50572L4.71816 3.51034C4.23944 4.05647 3.99262 4.25 3.775 4.25H3.69128C3.51169 4.09525 3.26828 4 3.00003 4H1C0.447719 4 0 4.40294 0 4.9V12.1C0 12.5971 0.447719 13 1 13H3C3.26825 13 3.51166 12.9047 3.69125 12.75H3.77497C4.67147 12.75 5.873 14 7.74997 14H8.41556C10.37 14 11.5031 12.7919 11.5387 11.1517C11.9288 10.5951 12.1165 9.87719 12.0382 9.1895C12.1495 8.97102 12.2328 8.73935 12.286 8.5H13.4C14.8198 8.5 16 7.3255 16 5.9C16 4.49066 14.8093 3.3 13.4 3.3ZM13.4 7H10.5554C10.9566 7.45841 11.0059 8.33828 10.4008 8.90781C10.7516 9.52175 10.4535 10.3336 9.99684 10.5836C10.2007 11.8063 9.68197 12.5 8.41559 12.5H7.75C6.32841 12.5 5.33719 11.3777 4 11.2601V5.73659C4.78872 5.64397 5.34269 5.07341 5.84609 4.49922C6.19844 4.10391 6.525 3.70859 6.80856 3.25313C7.26109 2.52225 7.62519 1.5 7.9 1.5C8.63047 1.5 9.275 1.775 9.275 2.6C9.275 3.7 8.45 4.25859 8.45 4.8H13.4C13.9758 4.8 14.5 5.31563 14.5 5.9C14.5 6.49297 13.993 7 13.4 7ZM2.75 11C2.75 11.4142 2.41422 11.75 2 11.75C1.58578 11.75 1.25 11.4142 1.25 11C1.25 10.5858 1.58578 10.25 2 10.25C2.41422 10.25 2.75 10.5858 2.75 11Z" fill="#2665C8"/>
</svg>
