<svg width="70" height="70" viewBox="0 0 70 70" fill="none" xmlns="http://www.w3.org/2000/svg">
<circle cx="35" cy="35" r="35" fill="#2665C8"/>
<path fill-rule="evenodd" clip-rule="evenodd" d="M24 29.9291C24 23.844 29.2053 19 35.5 19C41.7947 19 47 23.844 47 29.9291C47 33.3596 45.1337 37.6038 43.0893 41.2723C41.0143 44.9958 38.6245 48.3504 37.343 50.0705C37.1315 50.3578 36.855 50.5916 36.5358 50.7531C36.2149 50.9154 35.86 51 35.5 51C35.14 51 34.7851 50.9154 34.4642 50.7531C34.1449 50.5916 33.8684 50.3577 33.6569 50.0704C32.3754 48.3497 29.9857 44.9938 27.9107 41.2699C25.8664 37.6011 24 33.3571 24 29.9291ZM35.5 21.2858C30.3665 21.2858 26.3 25.2122 26.3 29.9291C26.3 32.7156 27.8836 36.5031 29.9227 40.1625C31.9256 43.7569 34.2455 47.018 35.5 48.7029C36.7545 47.0188 39.0744 43.7589 41.0773 40.1649C43.1163 36.5061 44.7 32.7182 44.7 29.9291C44.7 25.2122 40.6335 21.2858 35.5 21.2858Z" fill="white"/>
<path fill-rule="evenodd" clip-rule="evenodd" d="M35.5 28.1433C34.2297 28.1433 33.2 29.1667 33.2 30.4291C33.2 31.6915 34.2297 32.7149 35.5 32.7149C36.7703 32.7149 37.8 31.6915 37.8 30.4291C37.8 29.1667 36.7703 28.1433 35.5 28.1433ZM30.9 30.4291C30.9 27.9043 32.9595 25.8575 35.5 25.8575C38.0405 25.8575 40.1 27.9043 40.1 30.4291C40.1 32.9539 38.0405 35.0007 35.5 35.0007C32.9595 35.0007 30.9 32.9539 30.9 30.4291Z" fill="white"/>
</svg>
