<svg width="70" height="70" viewBox="0 0 70 70" fill="none" xmlns="http://www.w3.org/2000/svg">
<circle cx="35" cy="35" r="35" fill="#2665C8"/>
<path fill-rule="evenodd" clip-rule="evenodd" d="M33.7166 22.2965C34.1154 22.1015 34.554 22 34.9986 22C35.4432 22 35.8818 22.1015 36.2805 22.2965L48.7562 28.4035C48.757 28.4039 48.7577 28.4042 48.7585 28.4046C49.428 28.7296 49.9927 29.2336 50.3888 29.86C50.7853 30.487 50.997 31.2116 51 31.9518L51 31.9563V45.0332C51 47.2376 49.1789 49 46.9632 49H23.0368C20.8211 49 19 47.2376 19 45.0332V31.9563L19 31.9523C19.0026 31.2126 19.2137 30.4883 19.6095 29.8613C20.005 29.2348 20.5691 28.7303 21.2382 28.4048C21.2387 28.4046 21.2393 28.4043 21.2398 28.404L33.7166 22.2965ZM34.7279 24.3293C34.7279 24.3293 34.7278 24.3294 34.7278 24.3294L22.3518 30.3875L31.0228 36.8837L33.0542 35.3168C33.0542 35.3168 33.0542 35.3168 33.0542 35.3168C33.5557 34.9299 34.1729 34.7199 34.8082 34.7199C35.4436 34.7199 36.0608 34.9299 36.5622 35.3168L38.605 36.8926L47.4153 30.2749L35.2694 24.3294C35.2693 24.3293 35.2692 24.3293 35.2692 24.3293C35.185 24.2881 35.0924 24.2667 34.9986 24.2667C34.9047 24.2667 34.8121 24.2881 34.7279 24.3293ZM48.7145 32.1425L40.4725 38.3333L45.7943 42.4386C46.2924 42.8229 46.3822 43.5349 45.9947 44.029C45.6072 44.5231 44.8892 44.6121 44.3911 44.2278L35.159 37.106C35.0587 37.0286 34.9353 36.9866 34.8082 36.9866C34.6812 36.9866 34.5577 37.0286 34.4574 37.106L25.2247 44.2278C24.7265 44.6121 24.0085 44.5231 23.621 44.029C23.2336 43.5349 23.3233 42.8228 23.8215 42.4385L29.1546 38.3248L21.2855 32.4294V45.0332C21.2855 45.9583 22.0556 46.7333 23.0368 46.7333H46.9632C47.9444 46.7333 48.7145 45.9583 48.7145 45.0332V32.1425Z" fill="white"/>
</svg>
