<svg width="70" height="70" viewBox="0 0 70 70" fill="none" xmlns="http://www.w3.org/2000/svg">
<circle cx="35" cy="35" r="35" fill="#2665C8"/>
<path fill-rule="evenodd" clip-rule="evenodd" d="M26.4909 19.5075C26.7305 19.6957 26.9996 19.9489 27.3092 20.2547C27.9725 20.9074 28.7419 21.9533 29.4022 22.9574C30.0699 23.9727 30.6886 25.0415 31.0353 25.7854L31.0356 25.7859L31.0358 25.7863C31.2323 26.209 31.4095 26.592 31.534 26.9277C31.6605 27.2687 31.7656 27.6436 31.7662 28.0529C31.7677 28.9094 31.3027 29.5705 30.8549 30.1803C30.7262 30.3554 30.6169 30.499 30.5227 30.6227C30.3196 30.8894 30.1865 31.0642 30.0799 31.2664C29.9759 31.4636 29.9456 31.606 29.9948 31.8352C30.0657 32.1658 30.3742 32.8893 30.9732 33.8358C31.5525 34.7512 32.3457 35.7837 33.2934 36.7284C34.2408 37.6728 35.2569 38.4451 36.154 39.0039C37.0785 39.5797 37.7904 39.8753 38.1304 39.9478C38.3671 39.9983 38.5149 39.9667 38.7125 39.8638C38.921 39.7553 39.1064 39.6137 39.3948 39.3935C39.5082 39.307 39.6374 39.2083 39.7902 39.0947L39.7904 39.0946L39.802 39.086C40.4138 38.6314 41.0936 38.1264 41.9552 38.1273C42.381 38.1277 42.7631 38.2479 43.0995 38.3853C43.421 38.5165 43.7903 38.7025 44.1954 38.9066L44.2293 38.9237C44.9393 39.2817 45.995 39.8882 47.0169 40.5494C48.0209 41.1989 49.0803 41.9571 49.7399 42.6217L49.7408 42.6227C50.0475 42.9324 50.3013 43.2015 50.4899 43.441C50.6725 43.6729 50.8729 43.9728 50.9575 44.3458C51.0527 44.766 50.9664 45.1156 50.8779 45.3581C50.838 45.4674 50.7909 45.5724 50.7571 45.6474C50.7519 45.6591 50.7467 45.6706 50.7417 45.6817C50.7103 45.7513 50.6829 45.8121 50.6539 45.8817L50.6532 45.8834L50.6524 45.885C50.3539 46.593 49.9908 47.2719 49.5676 47.9132L49.5664 47.9151L49.5651 47.917C48.7383 49.1591 47.9605 49.9707 46.7514 50.5339C46.1231 50.8266 45.2254 51.1221 43.8303 50.9481C42.4884 50.7808 40.7427 50.1867 38.36 48.8522L38.3594 48.8519C34.5466 46.7136 31.9011 44.87 28.4883 41.4668C25.0856 38.0736 23.4131 35.859 21.0701 31.6027C18.7115 27.3178 18.7148 24.6754 19.3884 23.2361C19.954 22.0276 20.7737 21.2533 22.0117 20.4308L22.0142 20.4292L22.0166 20.4276C22.6586 20.0058 23.3378 19.6437 24.0458 19.3458L24.0482 19.3448L24.0505 19.3438C24.1206 19.3147 24.1819 19.2873 24.2519 19.2558C24.2629 19.2509 24.2741 19.2459 24.2856 19.2408C24.3609 19.2071 24.4659 19.1602 24.5752 19.1205C24.8173 19.0326 25.1662 18.9467 25.5857 19.0412C25.9586 19.1253 26.2586 19.3251 26.4909 19.5075ZM24.9301 21.4534C24.3524 21.6967 23.7981 21.9922 23.2741 22.3362C22.2282 23.0313 21.7799 23.5183 21.4586 24.2048C21.2451 24.6611 20.8499 26.4629 23.0724 30.5005C25.3107 34.5667 26.8524 36.6076 30.1022 39.8484C33.3419 43.079 35.8117 44.8025 39.4769 46.8581C41.7198 48.1143 43.1739 48.563 44.1131 48.6801C44.9992 48.7906 45.4639 48.6122 45.7863 48.462C46.4782 48.1397 46.9673 47.6945 47.6613 46.6522C48.0062 46.1292 48.3023 45.5755 48.5459 44.9982C48.5787 44.9197 48.6109 44.8471 48.6382 44.7865C48.5316 44.66 48.3684 44.4851 48.1172 44.2314C47.6425 43.7532 46.7614 43.1063 45.7754 42.4684C44.8073 41.8421 43.8234 41.2788 43.2006 40.9647C42.751 40.7382 42.463 40.5942 42.2357 40.5014C42.0146 40.4111 41.9503 40.4129 41.9528 40.4129C41.9735 40.4129 41.9029 40.3725 41.1535 40.9293C41.0769 40.9862 40.9942 41.0496 40.9066 41.1168C40.5727 41.3727 40.1684 41.6827 39.7678 41.8912C39.1692 42.2028 38.482 42.3598 37.6537 42.1831C36.9288 42.0285 35.9511 41.5702 34.9456 40.9439C33.9128 40.3006 32.7587 39.4226 31.6798 38.3471C30.6011 37.2719 29.7036 36.1037 29.0419 35.0581C28.3999 34.0436 27.917 33.0458 27.7601 32.315C27.5814 31.4828 27.7443 30.7956 28.058 30.2005C28.2602 29.8171 28.5623 29.4209 28.811 29.0948C28.8842 28.9988 28.9528 28.909 29.0128 28.8273C29.4932 28.1731 29.4819 28.0689 29.4807 28.0575C29.4807 28.0571 29.4806 28.0568 29.4806 28.0566C29.4806 28.0346 29.4755 27.9502 29.3911 27.7227C29.3047 27.4899 29.1703 27.1953 28.9634 26.7503C28.6808 26.1443 28.1269 25.1778 27.4925 24.2132C26.8508 23.2374 26.189 22.3589 25.7054 21.8831L25.7045 21.8823L25.7037 21.8815C25.4485 21.6294 25.273 21.466 25.1463 21.3597C25.0847 21.3872 25.0105 21.42 24.9301 21.4534Z" fill="white"/>
</svg>
