<svg width="32" height="33" viewBox="0 0 32 33" fill="none" xmlns="http://www.w3.org/2000/svg">
<path fill-rule="evenodd" clip-rule="evenodd" d="M11.2 27.2C9.6 27.2 4.8 22.4 4.8 20.8C4.8 20.2672 5.3328 19.2 6.4 17.6L0 16L3.2 11.2L9.6 12.8C16 3.2 25.6 0 32 0C32 6.4 28.8 16 19.2 22.4L20.8 28.8L16 32L14.4 25.6C12.8 26.6672 11.7328 27.2 11.2 27.2ZM9.664 22.336C10.2304 22.904 10.8144 23.4112 11.3008 23.76C11.6576 23.5616 12.1024 23.2864 12.6256 22.9376L17.4256 19.7376C23.6624 15.5776 27.408 9.472 28.4784 3.5216C22.528 4.5936 16.4208 8.3376 12.2624 14.5744L9.0624 19.3744C8.7136 19.8976 8.4384 20.3424 8.2384 20.6992C8.5904 21.1856 9.096 21.7712 9.6624 22.3376L9.664 22.336Z" fill="#2665C8"/>
<path d="M21.6 12.8C22.9255 12.8 24 11.7255 24 10.4C24 9.07452 22.9255 8 21.6 8C20.2745 8 19.2 9.07452 19.2 10.4C19.2 11.7255 20.2745 12.8 21.6 12.8Z" fill="#2665C8"/>
<path fill-rule="evenodd" clip-rule="evenodd" d="M3.2 22.4L4.8 24.8C3.7328 25.8672 3.2 27.2 3.2 28.8C4.8 28.8 6.1328 28.2672 7.2 27.2L9.6 28.8C7.4672 30.9328 4.2672 32 0 32C0 27.7328 1.0672 24.5328 3.2 22.4Z" fill="#2665C8"/>
<path fill-rule="evenodd" clip-rule="evenodd" d="M3.2 22.4L4.8 24.8C3.7328 25.8672 3.2 27.2 3.2 28.8C4.8 28.8 6.1328 28.2672 7.2 27.2L9.6 28.8C7.4672 30.9328 4.2672 32 0 32C0 27.7328 1.0672 24.5328 3.2 22.4Z" fill="#2665C8"/>
<path d="M21.608 12.8C22.9335 12.8 24.008 11.7255 24.008 10.4C24.008 9.07452 22.9335 8 21.608 8C20.2825 8 19.208 9.07452 19.208 10.4C19.208 11.7255 20.2825 12.8 21.608 12.8Z" fill="#FF4D00"/>
<path fill-rule="evenodd" clip-rule="evenodd" d="M3.20098 22.4031L4.80098 24.8031C3.73378 25.8703 3.20098 27.2031 3.20098 28.8031C4.80098 28.8031 6.13378 28.2703 7.20098 27.2031L9.60098 28.8031C7.46818 30.9359 4.26818 32.0031 0.000976562 32.0031C0.000976562 27.7359 1.06818 24.5359 3.20098 22.4031Z" fill="#FF4D00"/>
<path fill-rule="evenodd" clip-rule="evenodd" d="M3.20098 22.4031L4.80098 24.8031C3.73378 25.8703 3.20098 27.2031 3.20098 28.8031C4.80098 28.8031 6.13378 28.2703 7.20098 27.2031L9.60098 28.8031C7.46818 30.9359 4.26818 32.0031 0.000976562 32.0031C0.000976562 27.7359 1.06818 24.5359 3.20098 22.4031Z" fill="#FF4D00"/>
</svg>
