<svg width="32" height="32" viewBox="0 0 32 32" fill="none" xmlns="http://www.w3.org/2000/svg">
<path d="M31.2045 11.0473C32.3173 14.4666 32.2463 18.1612 31.0028 21.5351C29.7594 24.909 27.4159 27.7656 24.3506 29.644C21.2852 31.5224 17.6767 32.3132 14.107 31.8887C10.5373 31.4642 7.21463 29.8493 4.67495 27.3043C2.13526 24.7594 0.526642 21.4329 0.108565 17.8614C-0.309512 14.2899 0.487331 10.6816 2.37056 7.61863C4.25379 4.55565 7.1136 2.21653 10.4887 0.978611C13.8638 -0.259313 17.5573 -0.323869 20.9736 0.795355L18.8782 2.88935C18.7623 3.00535 18.6583 3.12935 18.5623 3.26135C15.8273 2.70916 12.9873 3.05209 10.4622 4.23945C7.93719 5.4268 5.86118 7.39553 4.54125 9.85446C3.22132 12.3134 2.72755 15.132 3.13297 17.8933C3.5384 20.6547 4.82149 23.2122 6.79247 25.1877C8.76346 27.1632 11.3177 28.4517 14.0774 28.8626C16.8371 29.2736 19.6558 28.7852 22.1166 27.4697C24.5774 26.1542 26.5496 24.0815 27.7415 21.558C28.9335 19.0345 29.2819 16.1942 28.7352 13.4573C28.872 13.3603 29.0004 13.2519 29.1191 13.1333L31.2045 11.0473ZM25.7961 14.0093C26.2254 16.1157 25.9647 18.3043 25.0526 20.2507C24.1406 22.1971 22.6259 23.7978 20.7329 24.8154C18.84 25.833 16.6696 26.2133 14.5436 25.9C12.4176 25.5867 10.4491 24.5965 8.92991 23.076C7.41075 21.5556 6.42181 19.586 6.10969 17.4592C5.79758 15.3323 6.17891 13.1615 7.19715 11.2685C8.2154 9.37552 9.81635 7.86112 11.7627 6.94984C13.709 6.03855 15.8971 5.77889 18.0025 6.20935V9.29935C16.5104 8.85362 14.9123 8.91847 13.4611 9.48364C12.01 10.0488 10.7888 11.082 9.99084 12.4196C9.19287 13.7573 8.86373 15.323 9.05553 16.8688C9.24733 18.4147 9.94911 19.8524 11.0498 20.9543C12.1504 22.0562 13.5871 22.7594 15.1323 22.9526C16.6775 23.1458 18.243 22.8179 19.5809 22.0208C20.9188 21.2237 21.9527 20.003 22.519 18.5519C23.0852 17.1008 23.1514 15.5023 22.7071 14.0093H25.7961ZM15.9991 19.0093C16.459 19.0096 16.9129 18.904 17.3255 18.7008C17.7381 18.4975 18.0985 18.2021 18.3788 17.8373C18.659 17.4724 18.8516 17.048 18.9417 16.5969C19.0318 16.1457 19.0169 15.6798 18.8982 15.2353L22.1212 12.0093H26.9997C27.1311 12.0096 27.2612 11.9839 27.3827 11.9338C27.5041 11.8837 27.6145 11.8102 27.7075 11.7173L31.7063 7.71735C31.8465 7.57749 31.942 7.39915 31.9807 7.20493C32.0194 7.01071 31.9996 6.80937 31.9238 6.62642C31.848 6.44348 31.7196 6.28717 31.5549 6.17731C31.3901 6.06745 31.1965 6.009 30.9985 6.00935H26V1.00936C26 0.811725 25.9414 0.618539 25.8317 0.454191C25.722 0.289842 25.566 0.1617 25.3835 0.0859472C25.2011 0.010194 25.0002 -0.00977393 24.8064 0.0285646C24.6126 0.0669032 24.4345 0.161829 24.2946 0.301356L20.2958 4.30135C20.2027 4.39423 20.1288 4.50457 20.0783 4.62606C20.0279 4.74755 20.0019 4.8778 20.0019 5.00935V9.88935C19.9813 9.90879 19.9613 9.9288 19.9419 9.94935L16.7789 13.1093C16.3658 12.9965 15.9333 12.9735 15.5105 13.0417C15.0878 13.1099 14.6845 13.2678 14.3278 13.5049C13.9711 13.7419 13.6693 14.0526 13.4425 14.416C13.2158 14.7794 13.0695 15.1871 13.0133 15.6118C12.9572 16.0364 12.9925 16.4682 13.117 16.8781C13.2415 17.2879 13.4523 17.6664 13.7351 17.988C14.0179 18.3097 14.3663 18.5671 14.7568 18.7429C15.1473 18.9187 15.5709 19.0089 15.9991 19.0073V19.0093Z" fill="#2665C8"/>
<path d="M15.999 19.0004C16.4589 19.0006 16.9128 18.895 17.3254 18.6918C17.738 18.4886 18.0984 18.1931 18.3786 17.8283C18.6589 17.4635 18.8515 17.0391 18.9416 16.5879C19.0317 16.1367 19.0168 15.6709 18.8981 15.2264L22.1211 12.0004H26.9996C27.131 12.0006 27.2611 11.975 27.3826 11.9249C27.504 11.8748 27.6144 11.8012 27.7074 11.7084L31.7062 7.70839C31.8464 7.56853 31.9419 7.39019 31.9806 7.19597C32.0193 7.00176 31.9995 6.80041 31.9237 6.61747C31.8479 6.43452 31.7195 6.27821 31.5547 6.16835C31.39 6.0585 31.1964 6.00004 30.9984 6.00039H25.9999V1.0004C25.9999 0.802768 25.9413 0.609582 25.8316 0.445234C25.7219 0.280885 25.5659 0.152743 25.3834 0.0769902C25.201 0.00123703 25.0001 -0.0187309 24.8063 0.0196076C24.6125 0.0579462 24.4344 0.152872 24.2945 0.292399L20.2957 4.2924C20.2026 4.38527 20.1286 4.49561 20.0782 4.6171C20.0278 4.73859 20.0018 4.86885 20.0018 5.00039V9.88039C19.9812 9.89984 19.9612 9.91984 19.9418 9.94039L16.7788 13.1004C16.3656 12.9876 15.9332 12.9645 15.5104 13.0327C15.0877 13.101 14.6844 13.2589 14.3277 13.4959C13.971 13.733 13.6691 14.0436 13.4424 14.407C13.2157 14.7704 13.0694 15.1782 13.0132 15.6028C12.9571 16.0275 12.9924 16.4593 13.1169 16.8691C13.2414 17.279 13.4521 17.6574 13.735 17.9791C14.0178 18.3007 14.3662 18.5581 14.7567 18.7339C15.1472 18.9097 15.5708 18.9999 15.999 18.9984V19.0004Z" fill="#FF4D00"/>
</svg>
