<svg width="36" height="32" viewBox="0 0 36 32" fill="none" xmlns="http://www.w3.org/2000/svg">
<path d="M35.9298 5.61404V13.7544C35.9298 14.5296 35.3015 15.1579 34.5263 15.1579C33.7511 15.1579 33.1228 14.5296 33.1228 13.7544V5.61404C33.1228 4.06634 31.8635 2.80702 30.3158 2.80702H5.61404C4.06634 2.80702 2.80702 4.06634 2.80702 5.61404V13.7544C2.80702 14.5296 2.17873 15.1579 1.40351 15.1579C0.628289 15.1579 0 14.5296 0 13.7544V5.61404C0 2.51837 2.51837 0 5.61404 0H30.3158C33.4115 0 35.9298 2.51837 35.9298 5.61404ZM34.5263 19.3684C33.7511 19.3684 33.1228 19.9967 33.1228 20.7719C33.1228 22.3196 31.8635 23.5789 30.3158 23.5789H16.3509C15.5757 23.5789 14.9474 24.2072 14.9474 24.9825C14.9474 25.7577 15.5757 26.386 16.3509 26.386H30.3158C33.4115 26.386 35.9298 23.8676 35.9298 20.7719C35.9298 19.9967 35.3015 19.3684 34.5263 19.3684ZM18.324 17.94C17.5521 18.0112 16.9844 18.6946 17.0556 19.4666C17.1231 20.1946 17.7346 20.741 18.4518 20.741C18.4948 20.741 18.5387 20.739 18.5825 20.7349C20.3632 20.5704 22.0074 19.6987 23.2122 18.2807C24.3991 16.884 25.0526 15.074 25.0526 13.1845C25.0526 9.00521 21.8731 5.60554 17.9649 5.60554C14.0567 5.60554 10.8772 9.00521 10.8772 13.1845C10.8772 13.4992 10.8956 13.8163 10.9315 14.1269C11.0208 14.8967 11.7179 15.4487 12.4874 15.3591C13.2574 15.2697 13.8092 14.5732 13.7198 13.8032C13.6963 13.5998 13.6842 13.3914 13.6842 13.1845C13.6842 10.5532 15.6044 8.41255 17.9649 8.41255C20.3254 8.41255 22.2456 10.5532 22.2456 13.1845C22.2456 15.6478 20.523 17.7366 18.324 17.94ZM30.5263 13.1228C30.5263 12.3476 29.898 11.7193 29.1228 11.7193C28.3476 11.7193 27.7193 12.3476 27.7193 13.1228C27.7193 13.898 28.3476 14.5263 29.1228 14.5263C29.898 14.5263 30.5263 13.898 30.5263 13.1228ZM8.21053 13.1228C8.21053 12.3476 7.58224 11.7193 6.80702 11.7193C6.0318 11.7193 5.40351 12.3476 5.40351 13.1228C5.40351 13.898 6.0318 14.5263 6.80702 14.5263C7.58224 14.5263 8.21053 13.898 8.21053 13.1228ZM10.7368 23.5789H1.40351C0.628289 23.5789 0 24.2072 0 24.9825C0 25.7577 0.628289 26.386 1.40351 26.386H10.7368C11.5121 26.386 12.1404 25.7577 12.1404 24.9825C12.1404 24.2072 11.5121 23.5789 10.7368 23.5789ZM12.8421 17.9649H1.40351C0.628289 17.9649 0 18.5932 0 19.3684C0 20.1436 0.628289 20.7719 1.40351 20.7719H12.8421C13.6173 20.7719 14.2456 20.1436 14.2456 19.3684C14.2456 18.5932 13.6173 17.9649 12.8421 17.9649ZM8.63158 29.193H1.40351C0.628289 29.193 0 29.8213 0 30.5965C0 31.3717 0.628289 32 1.40351 32H8.63158C9.4068 32 10.0351 31.3717 10.0351 30.5965C10.0351 29.8213 9.4068 29.193 8.63158 29.193Z" fill="white"/>
<path d="M35.9298 5.61404V13.7544C35.9298 14.5296 35.3015 15.1579 34.5263 15.1579C33.7511 15.1579 33.1228 14.5296 33.1228 13.7544V5.61404C33.1228 4.06634 31.8635 2.80702 30.3158 2.80702H5.61404C4.06634 2.80702 2.80702 4.06634 2.80702 5.61404V13.7544C2.80702 14.5296 2.17873 15.1579 1.40351 15.1579C0.628289 15.1579 0 14.5296 0 13.7544V5.61404C0 2.51837 2.51837 0 5.61404 0H30.3158C33.4115 0 35.9298 2.51837 35.9298 5.61404ZM34.5263 19.3684C33.7511 19.3684 33.1228 19.9967 33.1228 20.7719C33.1228 22.3196 31.8635 23.5789 30.3158 23.5789H16.3509C15.5757 23.5789 14.9474 24.2072 14.9474 24.9825C14.9474 25.7577 15.5757 26.386 16.3509 26.386H30.3158C33.4115 26.386 35.9298 23.8676 35.9298 20.7719C35.9298 19.9967 35.3015 19.3684 34.5263 19.3684ZM18.324 17.94C17.5521 18.0112 16.9844 18.6946 17.0556 19.4666C17.1231 20.1946 17.7346 20.741 18.4518 20.741C18.4948 20.741 18.5387 20.739 18.5825 20.7349C20.3632 20.5704 22.0074 19.6987 23.2122 18.2807C24.3991 16.884 25.0526 15.074 25.0526 13.1845C25.0526 9.00521 21.8731 5.60554 17.9649 5.60554C14.0567 5.60554 10.8772 9.00521 10.8772 13.1845C10.8772 13.4992 10.8956 13.8163 10.9315 14.1269C11.0208 14.8967 11.7179 15.4487 12.4874 15.3591C13.2574 15.2697 13.8092 14.5732 13.7198 13.8032C13.6963 13.5998 13.6842 13.3914 13.6842 13.1845C13.6842 10.5532 15.6044 8.41255 17.9649 8.41255C20.3254 8.41255 22.2456 10.5532 22.2456 13.1845C22.2456 15.6478 20.523 17.7366 18.324 17.94ZM30.5263 13.1228C30.5263 12.3476 29.898 11.7193 29.1228 11.7193C28.3476 11.7193 27.7193 12.3476 27.7193 13.1228C27.7193 13.898 28.3476 14.5263 29.1228 14.5263C29.898 14.5263 30.5263 13.898 30.5263 13.1228ZM8.21053 13.1228C8.21053 12.3476 7.58224 11.7193 6.80702 11.7193C6.0318 11.7193 5.40351 12.3476 5.40351 13.1228C5.40351 13.898 6.0318 14.5263 6.80702 14.5263C7.58224 14.5263 8.21053 13.898 8.21053 13.1228ZM10.7368 23.5789H1.40351C0.628289 23.5789 0 24.2072 0 24.9825C0 25.7577 0.628289 26.386 1.40351 26.386H10.7368C11.5121 26.386 12.1404 25.7577 12.1404 24.9825C12.1404 24.2072 11.5121 23.5789 10.7368 23.5789ZM12.8421 17.9649H1.40351C0.628289 17.9649 0 18.5932 0 19.3684C0 20.1436 0.628289 20.7719 1.40351 20.7719H12.8421C13.6173 20.7719 14.2456 20.1436 14.2456 19.3684C14.2456 18.5932 13.6173 17.9649 12.8421 17.9649ZM8.63158 29.193H1.40351C0.628289 29.193 0 29.8213 0 30.5965C0 31.3717 0.628289 32 1.40351 32H8.63158C9.4068 32 10.0351 31.3717 10.0351 30.5965C10.0351 29.8213 9.4068 29.193 8.63158 29.193Z" fill="white"/>
<path d="M18.3241 17.9484C17.5521 18.0197 16.9844 18.7031 17.0557 19.475C17.1231 20.2031 17.7347 20.7494 18.4518 20.7494C18.4948 20.7494 18.5387 20.7475 18.5826 20.7434C20.3633 20.5789 22.0075 19.7072 23.2122 18.2892C24.3992 16.8925 25.0527 15.0825 25.0527 13.193C25.0527 9.01368 21.8731 5.61401 17.965 5.61401C14.0568 5.61401 10.8772 9.01368 10.8772 13.193C10.8772 13.5077 10.8956 13.8248 10.9315 14.1354C11.0209 14.9051 11.718 15.4572 12.4874 15.3676C13.2575 15.2782 13.8093 14.5817 13.7199 13.8117C13.6963 13.6083 13.6843 13.3999 13.6843 13.193C13.6843 10.5617 15.6045 8.42103 17.965 8.42103C20.3254 8.42103 22.2457 10.5617 22.2457 13.193C22.2457 15.6562 20.5231 17.745 18.3241 17.9484ZM30.5264 13.1313C30.5264 12.3561 29.8981 11.7278 29.1229 11.7278C28.3476 11.7278 27.7194 12.3561 27.7194 13.1313C27.7194 13.9065 28.3476 14.5348 29.1229 14.5348C29.8981 14.5348 30.5264 13.9065 30.5264 13.1313ZM8.21058 13.1313C8.21058 12.3561 7.58229 11.7278 6.80707 11.7278C6.03185 11.7278 5.40356 12.3561 5.40356 13.1313C5.40356 13.9065 6.03185 14.5348 6.80707 14.5348C7.58229 14.5348 8.21058 13.9065 8.21058 13.1313Z" fill="#FFCA00"/>
<path d="M1.40351 23.579H10.7368C11.5121 23.579 12.1404 24.2073 12.1404 24.9825C12.1404 25.7577 11.5121 26.386 10.7368 26.386H1.40351C0.628289 26.386 0 25.7577 0 24.9825C0 24.2073 0.628289 23.579 1.40351 23.579Z" fill="#FFCA00"/>
<path d="M1.40351 17.965H12.8421C13.6173 17.965 14.2456 18.5933 14.2456 19.3685C14.2456 20.1437 13.6173 20.772 12.8421 20.772H1.40351C0.628289 20.772 0 20.1437 0 19.3685C0 18.5933 0.628289 17.965 1.40351 17.965Z" fill="#FFCA00"/>
<path d="M1.40351 29.193H8.63158C9.4068 29.193 10.0351 29.8213 10.0351 30.5965C10.0351 31.3718 9.4068 32.0001 8.63158 32.0001H1.40351C0.628289 32.0001 0 31.3718 0 30.5965C0 29.8213 0.628289 29.193 1.40351 29.193Z" fill="#FFCA00"/>
</svg>
