<svg width="29" height="32" viewBox="0 0 29 32" fill="none" xmlns="http://www.w3.org/2000/svg">
<path d="M26.4308 6.11213L17.0644 0.68707C15.4827 -0.229055 13.5174 -0.228992 11.9356 0.68707L2.56924 6.11213C0.984444 7.02994 0 8.74163 0 10.5791V21.4208C0 23.2583 0.984444 24.97 2.56918 25.8878L11.9356 31.3129C13.5176 32.2292 15.4829 32.2289 17.0644 31.3129L26.4308 25.8878C28.0156 24.97 29 23.2583 29 21.4208V10.5791C29 8.7417 28.0156 7.03001 26.4308 6.11213ZM26.5107 21.4208C26.5107 22.3673 26.0037 23.249 25.1873 23.7218L15.8209 29.1468C15.0061 29.6188 13.9939 29.6188 13.1791 29.1468L3.81263 23.7218C2.99633 23.2489 2.48927 22.3673 2.48927 21.4208V10.5791C2.48927 9.6327 2.99633 8.75101 3.81269 8.27826L13.1791 2.8532C13.9939 2.3812 15.0064 2.38138 15.8209 2.8532L25.1874 8.2782C26.0037 8.75101 26.5107 9.63263 26.5107 10.5791V21.4208Z" fill="white"/>
<path d="M13.3173 15.0456L8.69464 11.1167C8.16997 10.6707 7.38454 10.7363 6.94052 11.2635C6.49649 11.7906 6.56196 12.5794 7.0867 13.0254L10.5865 16L7.0867 18.9746C6.56196 19.4206 6.49656 20.2094 6.94052 20.7365C7.3856 21.2648 8.17121 21.3282 8.69464 20.8833L13.3173 16.9543C13.9054 16.4545 13.9037 15.544 13.3173 15.0456Z" fill="#FFCA00"/>
<path d="M21.1093 18.6787H15.5088C14.8214 18.6787 14.2642 19.2384 14.2642 19.9289C14.2642 20.6194 14.8214 21.1791 15.5088 21.1791H21.1093C21.7967 21.1791 22.354 20.6194 22.354 19.9289C22.354 19.2384 21.7968 18.6787 21.1093 18.6787Z" fill="#FFCA00"/>
</svg>
