<svg width="33" height="32" viewBox="0 0 33 32" fill="none" xmlns="http://www.w3.org/2000/svg">
<path d="M31.6151 27.3774L29.5588 23.6165V19.6875C29.5588 18.9971 28.9991 18.4375 28.3088 18.4375C27.6184 18.4375 27.0588 18.9971 27.0588 19.6875V22.625H5.05874V8H15.3129C16.0033 8 16.5629 7.44038 16.5629 6.75C16.5629 6.05963 16.0033 5.5 15.3129 5.5H3.80874C3.11837 5.5 2.55874 6.05963 2.55874 6.75V23.388L0.37749 27.3775C-0.147385 28.3376 -0.123698 29.4793 0.44099 30.4316C1.02337 31.4137 2.0498 32 3.1868 32H28.8684C29.9854 32 30.9921 31.427 31.5612 30.4671C32.1291 29.5094 32.1493 28.3544 31.6151 27.3774ZM29.4108 29.1921C29.3559 29.2846 29.1931 29.5 28.8684 29.5H20.3054C20.2711 28.8403 19.7269 28.3156 19.0588 28.3156H12.8712C12.2031 28.3156 11.6589 28.8403 11.6246 29.5H3.18674C2.8233 29.5 2.63912 29.2371 2.59137 29.1564C2.52587 29.0459 2.43605 28.8237 2.57105 28.5768L4.45837 25.125H27.5343L29.4216 28.5768C29.5693 28.8471 29.4783 29.0783 29.4108 29.1921Z" fill="white"/>
<path d="M20.2512 15.9375H30.7512C31.4415 15.9375 32.0012 15.3779 32.0012 14.6875V8.43751C32.0012 6.71438 30.5993 5.31251 28.8762 5.31251H24.2512V3.75C24.2512 3.06075 24.8119 2.5 25.5012 2.5C25.8669 2.5 26.2132 2.65963 26.4515 2.93794C26.9005 3.46238 27.6897 3.5235 28.214 3.0745C28.7385 2.6255 28.7996 1.83644 28.3506 1.312C27.6367 0.478189 26.5982 0 25.5012 0C23.4335 0 21.7512 1.68225 21.7512 3.75V5.33582C20.2043 5.52176 19.0012 6.84138 19.0012 8.43751V14.6875C19.0012 15.3779 19.5608 15.9375 20.2512 15.9375ZM21.5012 8.43751C21.5012 8.09288 21.7815 7.8125 22.1262 7.8125H28.8762C29.2208 7.8125 29.5012 8.09288 29.5012 8.43751V13.4375H21.5012V8.43751Z" fill="#FFCA00"/>
</svg>
