<svg width="32" height="32" viewBox="0 0 32 32" fill="none" xmlns="http://www.w3.org/2000/svg">
<path d="M17.0824 16.3516C17.1903 16.6307 17.25 16.9334 17.25 17.25C17.25 18.6285 16.1285 19.75 14.75 19.75C13.3715 19.75 12.25 18.6285 12.25 17.25C12.25 15.8715 13.3715 14.75 14.75 14.75C14.8819 14.75 15.0115 14.7604 15.138 14.7802L19.0276 9.96456C19.4613 9.4275 20.2484 9.34375 20.7854 9.77756C21.3224 10.2113 21.4061 10.9983 20.9724 11.5354L17.0824 16.3516ZM15.4884 29.4781C15.2442 29.4926 14.9958 29.5 14.75 29.5C7.99531 29.5 2.5 24.0047 2.5 17.25C2.5 10.4953 7.99531 5 14.75 5C21.3831 5 26.8776 10.3934 26.9979 17.0227C27.0105 17.7129 27.5806 18.2622 28.2704 18.2498C28.9607 18.2372 29.5101 17.6675 29.4975 16.9772C29.427 13.0946 27.8616 9.45575 25.0898 6.73088C22.6136 4.29669 19.4234 2.83925 16 2.55312V1.25C16 0.559625 15.4404 0 14.75 0C14.0596 0 13.5 0.559625 13.5 1.25V2.55294C10.0316 2.84212 6.80931 4.331 4.32019 6.82013C1.53425 9.60606 0 13.3101 0 17.25C0 21.1899 1.53425 24.8939 4.32019 27.6798C7.10606 30.4658 10.8101 32 14.75 32C15.045 32 15.3433 31.9912 15.6366 31.9737C16.3258 31.9328 16.8512 31.341 16.8103 30.6519C16.7694 29.9627 16.1778 29.4372 15.4884 29.4781Z" fill="white"/>
<path d="M23.2612 3.08683L26.6333 5.88658C26.8667 6.08039 27.1497 6.17489 27.4311 6.17489C27.7901 6.17489 28.1463 6.02108 28.3935 5.72333C28.8345 5.19214 28.7614 4.40414 28.2302 3.96308L24.8581 1.16333C24.3269 0.722328 23.5389 0.79539 23.0979 1.32658C22.657 1.85777 22.7301 2.64583 23.2612 3.08683ZM2.0633 6.17489C2.34093 6.17489 2.62036 6.08283 2.85236 5.8937L6.28699 3.09395C6.82211 2.65777 6.90224 1.87039 6.46605 1.33527C6.02986 0.80014 5.24249 0.719953 4.70736 1.1562L1.27274 3.95595C0.737614 4.39214 0.657489 5.17951 1.09368 5.71464C1.34074 6.01777 1.70049 6.17489 2.0633 6.17489Z" fill="#FFCA00"/>
<path d="M32 24.498C32 25.2822 31.5999 25.9936 30.9297 26.4011L22.2597 31.6723C21.9052 31.8878 21.5039 31.996 21.1023 31.996C20.726 31.996 20.3495 31.9011 20.0106 31.7105C19.3101 31.3166 18.875 30.5728 18.875 29.7692V19.2268C18.875 18.4233 19.3101 17.6794 20.0106 17.2855C20.7111 16.8916 21.573 16.9062 22.2597 17.3238L30.9297 22.5949C31.5999 23.0024 32 23.7138 32 24.498ZM29.2476 24.498L21.375 19.7116V29.2844L29.2476 24.498Z" fill="#FFCA00"/>
</svg>
