<svg width="70" height="70" viewBox="0 0 70 70" fill="none" xmlns="http://www.w3.org/2000/svg">
<circle cx="35" cy="35" r="35" fill="#2665C8" fill-opacity="0.07"/>
<path d="M51.5047 28.439H51.4009C51.2061 27.8193 50.952 27.219 50.6417 26.645L50.7195 26.5688C51.3002 25.9999 51.3002 25.0741 50.7195 24.5051L48.4062 22.2385C48.1236 21.9617 47.7477 21.8092 47.3476 21.8092C46.9475 21.8092 46.5715 21.9617 46.2889 22.2385L46.2161 22.3099C45.6308 22.0063 45.0186 21.7577 44.3868 21.5669V21.4612C44.3868 20.6555 43.716 20 42.8916 20H39.6229C38.7984 20 38.1276 20.6555 38.1276 21.4612V21.5669C37.4957 21.7577 36.8836 22.0063 36.2983 22.3099L36.2255 22.2385C35.9429 21.9617 35.567 21.8092 35.1668 21.8092C34.7667 21.8092 34.3907 21.9616 34.1082 22.2385L31.7949 24.505C31.2142 25.074 31.2142 25.9998 31.7949 26.5688L31.8727 26.645C31.5625 27.2189 31.3084 27.8192 31.1135 28.4389H31.0097C30.1853 28.4389 29.5145 29.0944 29.5145 29.9001V32.1459C29.5067 32.1435 29.4991 32.141 29.4913 32.1386C29.4901 31.4093 28.8826 30.8164 28.1362 30.8164H25.4454C24.6989 30.8164 24.0914 31.4093 24.0902 32.1386C23.6228 32.2849 23.1686 32.4694 22.7319 32.6902C22.4763 32.4422 22.1376 32.3057 21.7772 32.3057C21.4146 32.3057 21.0738 32.4439 20.8177 32.6948L18.9134 34.5606C18.3872 35.0762 18.3871 35.9152 18.9131 36.431C18.6873 36.8593 18.4988 37.3048 18.3492 37.7633C17.6048 37.7664 17 38.3593 17 39.0878V41.7286C17 42.457 17.6048 43.05 18.3493 43.0531C18.4988 43.5115 18.6874 43.9571 18.9131 44.3854C18.3871 44.9012 18.3872 45.7401 18.9135 46.2557L20.8178 48.1215C21.0738 48.3725 21.4146 48.5106 21.7772 48.5106C22.1377 48.5106 22.4764 48.3741 22.732 48.1262C23.1686 48.347 23.6228 48.5314 24.0902 48.6778C24.0915 49.4071 24.6989 50 25.4454 50H28.1363C28.8827 50 29.4901 49.4071 29.4914 48.6778C29.9589 48.5314 30.4129 48.3469 30.8496 48.1262C31.1052 48.3741 31.4441 48.5106 31.8044 48.5106C32.167 48.5106 32.5077 48.3725 32.7638 48.1215L34.6681 46.2558C35.1945 45.7402 35.1946 44.9012 34.6685 44.3855C34.8942 43.9571 35.0828 43.5117 35.2323 43.0532C35.9769 43.0501 36.5816 42.4571 36.5816 41.7287V40.8214C37.0615 41.0483 37.5957 41.2682 38.1276 41.4368V41.5473C38.1276 42.353 38.7984 43.0085 39.6229 43.0085H42.8916C43.7161 43.0085 44.3868 42.353 44.3868 41.5473V41.4416C45.0187 41.2508 45.6308 41.0022 46.2161 40.6987L46.289 40.77C46.5716 41.0469 46.9475 41.1993 47.3477 41.1993C47.7477 41.1993 48.1237 41.0468 48.4063 40.77L50.7196 38.5034C51.3003 37.9345 51.3003 37.0087 50.7196 36.4397L50.6418 36.3635C50.9521 35.7895 51.2061 35.1894 51.401 34.5696H51.5047C52.3292 34.5696 53 33.9141 53 33.1083V29.9002C52.9999 29.0945 52.3292 28.439 51.5047 28.439ZM35.1754 41.6774H34.7019C34.3796 41.6774 34.0986 41.8918 34.02 42.1976C33.8435 42.8848 33.5652 43.5423 33.193 44.1521C33.028 44.4225 33.0717 44.7679 33.2991 44.9907L33.6356 45.3204L31.8043 47.1146L31.4694 46.7865C31.2415 46.5631 30.8873 46.5202 30.6106 46.6824C29.9883 47.047 29.3174 47.3195 28.6164 47.4924C28.3041 47.5694 28.0852 47.8442 28.0852 48.1594V48.6243H25.4965V48.1594C25.4965 47.8442 25.2776 47.5694 24.9652 47.4924C24.2642 47.3195 23.5933 47.047 22.9711 46.6824C22.6943 46.5202 22.3402 46.5631 22.1122 46.7865L21.7773 47.1146L19.946 45.3204L20.2825 44.9907C20.5099 44.7679 20.5537 44.4224 20.3886 44.1521C20.0164 43.5423 19.7382 42.8846 19.5617 42.1976C19.4831 41.8918 19.202 41.6774 18.8797 41.6774H18.4062V39.1389H18.8797C19.202 39.1389 19.4831 38.9245 19.5617 38.6187C19.7382 37.9317 20.0164 37.2741 20.3886 36.6643C20.5537 36.394 20.5099 36.0485 20.2825 35.8257L19.946 35.4961L21.7773 33.7019L22.1122 34.03C22.3402 34.2533 22.6942 34.2962 22.9711 34.134C23.5933 33.7695 24.2642 33.4969 24.9653 33.324C25.2776 33.2469 25.4965 32.9721 25.4965 32.6571V32.1921H28.0852V32.6571C28.0852 32.9721 28.304 33.247 28.6164 33.324C29.3175 33.4969 29.9884 33.7695 30.6106 34.134C30.8873 34.2962 31.2415 34.2534 31.4694 34.03L31.8044 33.7018L33.6356 35.4961L33.2991 35.8257C33.0717 36.0486 33.0281 36.394 33.193 36.6643C33.5652 37.274 33.8435 37.9317 34.02 38.6188C34.0986 38.9246 34.3796 39.139 34.7019 39.139H35.1754V41.6774ZM51.5937 33.1083C51.5937 33.1555 51.5537 33.1938 51.5047 33.1938H50.8674C50.5451 33.1938 50.2641 33.4082 50.1855 33.714C49.9675 34.5627 49.6239 35.3749 49.1641 36.128C48.9991 36.3984 49.0428 36.7439 49.2702 36.9666L49.7243 37.4116C49.758 37.4446 49.758 37.4984 49.7243 37.5315L47.411 39.798C47.3763 39.832 47.3186 39.832 47.284 39.798L46.8338 39.3568C46.6059 39.1334 46.2517 39.0905 45.9749 39.2527C45.2064 39.703 44.3777 40.0396 43.5117 40.2532C43.1994 40.3302 42.9804 40.605 42.9804 40.9202V41.5472C42.9804 41.5943 42.9406 41.6328 42.8915 41.6328H39.6227C39.5736 41.6328 39.5337 41.5944 39.5337 41.5472V40.9202C39.5337 40.6051 39.3148 40.3302 39.0024 40.2532C38.2938 40.0785 37.3739 39.7042 36.5815 39.2733V39.0878C36.5815 38.3593 35.9767 37.7664 35.2322 37.7633C35.0827 37.3047 34.8941 36.8593 34.6683 36.431C35.1944 35.9152 35.1942 35.0762 34.668 34.5606L32.7637 32.6947C32.5076 32.4439 32.1669 32.3056 31.8042 32.3056C31.4763 32.3056 31.1663 32.4187 30.9206 32.6258V29.9001C30.9206 29.8529 30.9605 29.8145 31.0096 29.8145H31.6468C31.9691 29.8145 32.2501 29.6001 32.3287 29.2943C32.5467 28.4457 32.8903 27.6335 33.3501 26.8803C33.5151 26.61 33.4714 26.2645 33.244 26.0417L32.7899 25.5967C32.7562 25.5636 32.7562 25.5099 32.7899 25.4768L35.1032 23.2103C35.1378 23.1763 35.1954 23.1763 35.2302 23.2103L35.6804 23.6514C35.9083 23.8748 36.2625 23.9177 36.5392 23.7555C37.3078 23.3051 38.1365 22.9685 39.0024 22.755C39.3148 22.6779 39.5337 22.4031 39.5337 22.088V21.4609C39.5337 21.4138 39.5736 21.3754 39.6227 21.3754H42.8915C42.9406 21.3754 42.9804 21.4138 42.9804 21.4609V22.088C42.9804 22.4031 43.1993 22.6779 43.5117 22.755C44.3777 22.9685 45.2064 23.3051 45.9749 23.7555C46.2517 23.9176 46.6059 23.8747 46.8338 23.6513L47.284 23.2102C47.3187 23.1762 47.3763 23.1762 47.411 23.2102L49.7243 25.4768C49.758 25.5098 49.758 25.5636 49.7243 25.5966L49.2702 26.0416C49.0428 26.2645 48.9991 26.6099 49.1641 26.8802C49.6239 27.6334 49.9675 28.4456 50.1855 29.2943C50.2641 29.6001 50.5451 29.8145 50.8674 29.8145H51.5047C51.5537 29.8145 51.5937 29.8529 51.5937 29.9V33.1083Z" fill="#2665C8"/>
<path d="M41.1916 25.625C37.8148 25.625 35.0676 28.4103 35.0676 31.834C35.0676 35.2576 37.8148 38.0429 41.1916 38.0429C44.5685 38.0429 47.3157 35.2576 47.3157 31.834C47.3157 28.4103 44.5685 25.625 41.1916 25.625ZM41.1916 36.6623C38.5667 36.6623 36.4311 34.4963 36.4311 31.8339C36.4311 29.1715 38.5667 27.0055 41.1916 27.0055C43.8165 27.0055 45.9521 29.1715 45.9521 31.8339C45.9521 34.4964 43.8166 36.6623 41.1916 36.6623Z" fill="#FF4D00"/>
<path fill-rule="evenodd" clip-rule="evenodd" d="M27.1641 44.07C28.9588 44.07 30.4169 42.5942 30.4169 40.7696C30.4169 38.945 28.9588 37.4692 27.1641 37.4692C25.3695 37.4692 23.9113 38.945 23.9113 40.7696C23.9113 42.5942 25.3695 44.07 27.1641 44.07ZM31.6442 40.7696C31.6442 43.2786 29.6384 45.3125 27.1641 45.3125C24.6899 45.3125 22.6841 43.2786 22.6841 40.7696C22.6841 38.2606 24.6899 36.2267 27.1641 36.2267C29.6384 36.2267 31.6442 38.2606 31.6442 40.7696Z" fill="#FF4D00"/>
</svg>
