<svg width="70" height="70" viewBox="0 0 70 70" fill="none" xmlns="http://www.w3.org/2000/svg">
<circle cx="35" cy="35" r="35" fill="#2665C8" fill-opacity="0.07"/>
<path d="M25.7212 41.5605C26.5395 41.5605 27.2029 40.8971 27.2029 40.0787C27.2029 39.2603 26.5395 38.5969 25.7212 38.5969C24.9029 38.5969 24.2395 39.2603 24.2395 40.0787C24.2395 40.8971 24.9029 41.5605 25.7212 41.5605Z" fill="#FF4D00"/>
<path d="M30.5694 41.5605C31.3877 41.5605 32.0511 40.8971 32.0511 40.0787C32.0511 39.2603 31.3877 38.5969 30.5694 38.5969C29.751 38.5969 29.0876 39.2603 29.0876 40.0787C29.0876 40.8971 29.751 41.5605 30.5694 41.5605Z" fill="#FF4D00"/>
<path d="M35.4173 41.5605C36.2356 41.5605 36.899 40.8971 36.899 40.0787C36.899 39.2603 36.2356 38.5969 35.4173 38.5969C34.5989 38.5969 33.9355 39.2603 33.9355 40.0787C33.9355 40.8971 34.5989 41.5605 35.4173 41.5605Z" fill="#FF4D00"/>
<path d="M40.0949 20C33.2109 20 28.1897 24.0487 28.1897 29.043C28.1897 29.6988 28.2764 30.3383 28.4423 30.9545C29.1278 30.8669 29.8381 30.8211 30.5694 30.8211C36.5505 30.8211 41.1254 33.8774 42.2225 37.9548C43.0946 37.846 43.9356 37.6715 44.7357 37.4386L47.4025 38.5153L47.564 36.2834C50.5971 34.6339 52.0001 32.0048 52.0001 29.043C52.0001 24.0487 46.9789 20 40.0949 20Z" fill="#89B7FF"/>
<path d="M23.2616 50.0001C23.139 50.0001 23.0172 49.9662 22.9103 49.8997C22.7302 49.7875 22.6145 49.596 22.5992 49.3844L22.4634 47.507C19.5814 45.8146 18 43.1138 18 39.8643C18 37.2123 19.2887 34.7551 21.6286 32.9452C23.9527 31.1477 27.1278 30.1577 30.5693 30.1577C34.0107 30.1577 37.1858 31.1476 39.5098 32.9452C41.8498 34.7551 43.1385 37.2123 43.1385 39.8643C43.1385 42.5163 41.8498 44.9735 39.5098 46.7834C37.1858 48.5809 34.0106 49.5709 30.5693 49.5709C28.9831 49.5709 27.4358 49.3655 25.9663 48.9602L23.5104 49.9517C23.4302 49.9841 23.3457 50.0001 23.2616 50.0001ZM30.5693 31.4848C27.4205 31.4848 24.5341 32.3761 22.4416 33.9946C20.4338 35.5475 19.3281 37.6321 19.3281 39.8643C19.3281 42.7648 20.7422 45.0669 23.4176 46.5219C23.6162 46.6299 23.7462 46.8315 23.7624 47.0569L23.8581 48.3801L25.6796 47.6446C25.8179 47.5888 25.971 47.5811 26.1142 47.6228C27.5293 48.0349 29.0282 48.2439 30.5692 48.2439C33.7179 48.2439 36.6043 47.3525 38.6968 45.7341C40.7045 44.1811 41.8103 42.0966 41.8103 39.8644C41.8103 37.6321 40.7046 35.5476 38.6968 33.9947C36.6044 32.3761 33.7179 31.4848 30.5693 31.4848Z" fill="#2665C8"/>
</svg>
