<svg width="70" height="70" viewBox="0 0 70 70" fill="none" xmlns="http://www.w3.org/2000/svg">
<circle cx="35" cy="35" r="35" fill="#2665C8" fill-opacity="0.07"/>
<path d="M26.0858 32.7473C25.9772 32.7473 25.8678 32.7203 25.7684 32.6648L25.1647 32.3276C24.8549 32.1547 24.7461 31.7668 24.9214 31.4614C25.0968 31.1559 25.4901 31.0485 25.7999 31.2215L25.977 31.3204L26.7572 30.551C27.0089 30.303 27.4169 30.303 27.6687 30.551C27.9204 30.7992 27.9204 31.2017 27.6686 31.45L26.5417 32.5612C26.4177 32.6835 26.2527 32.7473 26.0858 32.7473Z" fill="#FF4D00"/>
<path d="M26.0858 43.4116C25.9772 43.4116 25.8678 43.3846 25.7684 43.329L25.1647 42.9919C24.8549 42.8189 24.7461 42.4311 24.9214 42.1256C25.0968 41.8201 25.4901 41.7127 25.7999 41.8858L25.977 41.9847L26.8078 41.1653C27.0595 40.9172 27.4676 40.9172 27.7193 41.1653C27.971 41.4135 27.9711 41.816 27.7194 42.0643L26.5419 43.2255C26.4177 43.3478 26.2527 43.4116 26.0858 43.4116Z" fill="#FF4D00"/>
<path d="M50.4538 20H46.7278C45.8753 20 45.1816 20.684 45.1816 21.5247V44.7597C45.1816 44.7601 45.1816 44.9761 45.2761 45.0911L48.0362 49.6882C48.1522 49.8815 48.3631 50 48.5908 50C48.8186 50 49.0295 49.8815 49.1455 49.6882L51.9056 45.0911C51.985 44.9707 52.0001 44.7602 52.0001 44.7597V21.5247C52 20.684 51.3063 20 50.4538 20ZM46.4707 44.1242V25.2754H47.9463V44.1242H46.4707ZM49.2353 25.2754H50.7109V44.1242H49.2353V25.2754ZM46.4707 21.5247C46.4707 21.385 46.5861 21.2712 46.7278 21.2712H50.4538C50.5956 21.2712 50.7109 21.385 50.7109 21.5247V24.0042H46.4707V21.5247ZM48.5908 48.1169L46.9568 45.3954H50.2247L48.5908 48.1169Z" fill="#2665C8"/>
<path d="M39.9814 32.1016H32.0806C31.7246 32.1016 31.436 32.3861 31.436 32.7372C31.436 33.0881 31.7246 33.3728 32.0806 33.3728H39.9814C40.3374 33.3728 40.626 33.0881 40.626 32.7372C40.626 32.3862 40.3374 32.1016 39.9814 32.1016Z" fill="#2665C8"/>
<path d="M32.0806 29.5669C31.7246 29.5669 31.436 29.8515 31.436 30.2025C31.436 30.5535 31.7246 30.8381 32.0806 30.8381H37.2167C37.5727 30.8381 37.8613 30.5535 37.8613 30.2025C37.8613 29.8515 37.5727 29.5669 37.2167 29.5669H32.0806Z" fill="#2665C8"/>
<path d="M39.9814 42.7656H32.0806C31.7246 42.7656 31.436 43.0502 31.436 43.4012C31.436 43.7522 31.7246 44.0368 32.0806 44.0368H39.9814C40.3374 44.0368 40.626 43.7522 40.626 43.4012C40.626 43.0502 40.3374 42.7656 39.9814 42.7656Z" fill="#2665C8"/>
<path d="M32.0806 41.5021H37.2167C37.5727 41.5021 37.8613 41.2175 37.8613 40.8666C37.8613 40.5156 37.5727 40.231 37.2167 40.231H32.0806C31.7246 40.231 31.436 40.5156 31.436 40.8666C31.436 41.2175 31.7246 41.5021 32.0806 41.5021Z" fill="#2665C8"/>
<path d="M41.9471 20.0327H20.7193C19.7713 20.0327 19 20.7933 19 21.7282V48.2738C19 49.2087 19.7713 49.9692 20.7193 49.9692H41.9471C42.8952 49.9692 43.6664 49.2087 43.6664 48.2738V21.7282C43.6664 20.7933 42.8951 20.0327 41.9471 20.0327ZM42.3774 48.2738C42.3774 48.5077 42.1844 48.698 41.9471 48.698H20.7193C20.482 48.698 20.2891 48.5077 20.2891 48.2738V21.7282C20.2891 21.4942 20.482 21.3039 20.7193 21.3039H41.9471C42.1844 21.3039 42.3774 21.4942 42.3774 21.7282V48.2738Z" fill="#2665C8"/>
<path d="M38.539 24.9989C38.539 24.6479 38.2504 24.3633 37.8944 24.3633H24.7715C24.4155 24.3633 24.127 24.6479 24.127 24.9989C24.127 25.3499 24.4155 25.6345 24.7715 25.6345H37.8944C38.2504 25.6345 38.539 25.3499 38.539 24.9989Z" fill="#2665C8"/>
</svg>
