<svg width="22" height="12" viewBox="0 0 22 12" fill="none" xmlns="http://www.w3.org/2000/svg">
<path d="M12.4367 0.430584C12.6911 0.183505 13.0298 0.0469095 13.3811 0.0496208C13.7324 0.052332 14.069 0.194138 14.3198 0.445117C14.5705 0.696095 14.7159 1.03661 14.7252 1.39482C14.7345 1.75303 14.607 2.10091 14.3695 2.36505L7.16193 11.5584C7.03799 11.6945 6.88841 11.8038 6.72212 11.8796C6.55584 11.9555 6.37626 11.9963 6.19414 11.9998C6.01202 12.0032 5.83108 11.9691 5.66216 11.8996C5.49324 11.8301 5.33979 11.7266 5.21099 11.5952L0.431207 6.72037C0.298098 6.59387 0.191335 6.44132 0.117286 6.27183C0.0432372 6.10233 0.00342047 5.91936 0.000210847 5.73383C-0.00299877 5.5483 0.0304645 5.36401 0.0986045 5.19196C0.166744 5.01991 0.268165 4.86361 0.396816 4.7324C0.525467 4.60119 0.678713 4.49775 0.847411 4.42826C1.01611 4.35876 1.1968 4.32463 1.37872 4.32791C1.56063 4.33118 1.74003 4.37179 1.90622 4.44731C2.07241 4.52283 2.22198 4.63172 2.34601 4.76748L6.12866 8.62352L12.4005 0.471117C12.4118 0.456893 12.4239 0.443358 12.4367 0.430584ZM10.7748 9.90026L12.4367 11.5952C12.5654 11.7263 12.7188 11.8296 12.8875 11.8989C13.0563 11.9683 13.237 12.0022 13.4189 11.9988C13.6008 11.9954 13.7802 11.9546 13.9463 11.8789C14.1124 11.8033 14.2619 11.6942 14.3858 11.5584L21.597 2.36505C21.7266 2.23462 21.829 2.07889 21.8982 1.90718C21.9674 1.73547 22.002 1.5513 21.9999 1.36565C21.9978 1.18001 21.959 0.996704 21.8859 0.826687C21.8127 0.656669 21.7068 0.503425 21.5743 0.376105C21.4418 0.248785 21.2855 0.150001 21.1148 0.0856525C20.944 0.0213036 20.7623 -0.00729087 20.5805 0.0015773C20.3986 0.0104455 20.2204 0.0565948 20.0565 0.137268C19.8925 0.217941 19.7462 0.331484 19.6262 0.471117L13.3525 8.62352L12.4764 7.72813L10.773 9.90026H10.7748Z" fill="#2665C8"/>
</svg>
